<svg width="588" height="588" xmlns="http://www.w3.org/2000/svg">
 <!-- Created with Method Draw - http://github.com/duopixel/Method-Draw/ -->
 <g>
  <title>Layer 1</title>
  <g id="widget" transform="rotate(-0.0926624983549118 294.3764648437568,302.3101196289116) matrix(7.224760791089692,0,0,7.224760791089692,1091.8911354197558,1091.8773791888611) ">

   <path d="m-110.235944,-85.470377l-36.91286,6.2079l36.91286,6.1644l36.61214,-6.1644l-36.61214,-6.2079z" fill="#64b558" id="svg_2"/>
   <path d="m-110.235944,-91.847177l-36.91286,6.2079l36.91286,6.1644l36.61214,-6.1644l-36.61214,-6.2079z" fill="#4a923b" id="svg_3"/>
   <path d="m-110.235944,-97.842677l-36.91286,6.2079l36.91286,6.1644l36.61214,-6.1644l-36.61214,-6.2079z" fill="#247b1f" id="svg_4"/>
   <path d="m-147.148804,-129.159877l5.5719,0l0,2.2288q1.6097,-1.684 2.7489,-2.2784q1.2134,-0.6191 3.046,-0.6191q4.0861,0 6.4634,3.5661q2.625,-3.5661 7.1074,-3.5661q8.14741,0 8.14741,9.881l0,14.90805l-5.59672,0l0,-13.39746q0,-3.46699 -0.84199,-4.90329q-0.8667,-1.4611 -2.8479,-1.4611q-2.3031,0 -3.3555,1.7335q-1.0525,1.7335 -1.0525,5.57193l0,12.45642l-5.5967,0l0,-13.32317q0,-6.43868 -3.7147,-6.43868q-2.3526,0 -3.4298,1.7582q-1.0773,1.7583 -1.0773,5.54723l0,12.45642l-5.5719,0l0,-24.12035z" fill="#93cd8d" id="svg_5"/>
   <path d="m-101.458794,-129.159877l0,24.12035l-5.57195,0l0,-24.12035l5.57195,0zm-6.41394,-10.0296q0,-1.461 1.06486,-2.5259q1.06487,-1.0649 2.55072,-1.0649q1.51062,0 2.57548,1.0649q1.06487,1.0401 1.06487,2.5507q0,1.5106 -1.06487,2.5755q-1.04009,1.0649 -2.55071,1.0649q-1.51062,0 -2.57549,-1.0649q-1.06486,-1.0649 -1.06486,-2.6003z" fill="#93cd8d" id="svg_6"/>
   <path d="m-94.401004,-129.159877l5.5967,0l0,2.2288q2.9222,-2.8975 6.5873,-2.8975q4.21,0 6.5626,2.6498q2.0306,2.2536 2.0306,7.355l0,14.78425l-5.5967,0l0,-13.47175q0,-3.5661 -0.9906,-4.9281q-0.9658,-1.3868 -3.5165,-1.3868q-2.7736,0 -3.9375,1.8326q-1.1392,1.8078 -1.1392,6.31485l0,11.6392l-5.5967,0l0,-24.12035z" fill="#93cd8d" id="svg_7"/>
  </g>
 </g>
</svg>